# Blender v2.79 (sub 0) OBJ File: 'SnowyRock.blend'
# www.blender.org
mtllib SnowyRock.mtl
o Icosphere.001
v 0.075518 -0.386228 -0.084800
v 1.068707 -0.386228 0.393186
v -0.303840 -0.403837 0.688605
v -1.152130 -0.403833 -0.084800
v -0.303840 -0.403837 -0.858204
v 1.068707 -0.386228 -0.562786
v 0.473981 0.330181 0.585623
v -0.771941 0.512452 0.393186
v -0.917672 0.404969 -0.413108
v 0.454875 0.512453 -0.858204
v 1.076679 0.330176 -0.022424
v 0.075518 1.078737 -0.084800
v -0.147461 -0.386228 0.369793
v 0.659296 -0.386228 0.196151
v 0.436319 -0.386228 0.650748
v 1.243077 -0.386228 -0.084800
v 0.659296 -0.386228 -0.365751
v -0.646074 -0.340077 -0.084800
v -0.869059 -0.414919 0.369794
v -0.147461 -0.340080 -0.539392
v -0.869059 -0.403426 -0.539394
v 0.436319 -0.386228 -0.820348
v 1.380895 0.054308 0.196152
v 1.380895 0.054308 -0.365752
v 0.075518 0.054308 0.824394
v 0.882285 0.054308 0.650753
v -1.229859 0.054308 0.196152
v -0.731249 0.054308 0.650753
v -0.731249 0.054308 -0.820352
v -1.169449 0.054308 -0.365752
v 0.882285 0.054308 -0.820352
v 0.075518 0.054308 -0.993993
v 0.882210 0.410615 0.369057
v -0.285284 0.592889 0.650748
v -0.994770 0.592887 -0.084800
v -0.285284 0.592889 -0.820348
v 0.882210 0.410615 -0.248547
v 0.298496 0.672573 0.231907
v 0.721891 0.743468 -0.022424
v -0.508260 0.925743 0.196151
v -0.508260 0.925743 -0.365751
v 0.298496 0.925743 -0.539392
vn 0.0000 -1.0000 0.0000
vn -0.0638 -0.9975 -0.0313
vn -0.0637 -0.9955 -0.0698
vn -0.0394 -0.9959 -0.0818
vn 0.8361 -0.4561 0.3050
vn 0.0560 -0.3261 0.9437
vn -0.7746 -0.4209 0.4721
vn -0.4584 -0.3606 -0.8123
vn 0.3524 -0.3567 -0.8652
vn 0.6666 -0.1454 0.7311
vn -0.2090 -0.1148 0.9712
vn -0.9890 -0.1026 -0.1063
vn -0.2090 -0.1148 -0.9712
vn 0.6666 -0.1454 -0.7311
vn 0.1881 0.7507 0.6333
vn -0.4491 0.6015 0.6607
vn -0.6670 0.5682 -0.4819
vn 0.0268 0.6169 -0.7866
vn 0.6994 0.6004 -0.3879
vn 0.4646 0.8828 -0.0692
vn 0.7115 0.5958 -0.3726
vn 0.7103 0.5783 -0.4013
vn -0.0756 0.9333 -0.3512
vn -0.1351 0.7667 -0.6276
vn -0.5683 0.5058 -0.6491
vn -0.2535 0.9673 0.0000
vn -0.5647 0.8253 0.0000
vn -0.6647 0.6216 0.4145
vn 0.1760 0.6636 0.7271
vn 0.2403 0.8356 0.4940
vn 0.3108 0.7553 0.5769
vn 0.2891 0.6823 0.6715
vn 0.2165 0.7858 0.5794
vn 0.7373 0.6329 0.2362
vn 0.5444 0.8200 -0.1765
vn 0.4343 0.7645 -0.4763
vn 0.6913 0.6133 -0.3821
vn -0.0166 0.2967 -0.9548
vn -0.2073 0.1717 -0.9631
vn -0.5720 0.4736 -0.6697
vn -0.7527 0.4795 -0.4512
vn -0.9300 0.3538 -0.1000
vn -0.7245 0.5398 0.4286
vn -0.4797 0.3972 0.7824
vn -0.2073 0.1717 0.9631
vn 0.2244 0.4320 0.8735
vn 0.2820 0.5951 0.7526
vn 0.5817 0.5045 0.6380
vn 0.6075 0.7817 0.1411
vn 0.2090 0.1148 -0.9712
vn 0.2058 -0.2083 -0.9562
vn 0.0560 -0.3261 -0.9437
vn -0.6630 0.3898 -0.6391
vn -0.7047 -0.2048 -0.6793
vn -0.7995 -0.3357 -0.4981
vn -0.6348 0.3350 0.6963
vn -0.6544 -0.2376 0.7178
vn -0.4538 -0.3559 0.8169
vn 0.1850 0.4767 0.8594
vn 0.2058 -0.2083 0.9562
vn 0.3524 -0.3567 0.8652
vn 0.6718 0.7408 0.0000
vn 0.9544 -0.2986 0.0000
vn 0.8361 -0.4561 -0.3050
vn -0.0638 -0.9975 0.0313
vn 0.0137 -0.9818 0.1896
vn 0.0864 -0.9842 0.1544
vn 0.0870 -0.9916 0.0955
vn 0.1246 -0.9892 0.0767
vn 0.1244 -0.9870 -0.1015
vn 0.0393 -0.9889 -0.1435
vn 0.0397 -0.9986 -0.0357
vn 0.0215 -0.9988 -0.0446
usemtl Material.003
s off
f 1//1 14//1 13//1
f 2//1 14//1 16//1
f 1//2 13//2 18//2
f 1//3 18//3 20//3
f 1//4 20//4 17//4
f 2//5 16//5 23//5
f 3//6 15//6 25//6
f 4//7 19//7 27//7
f 5//8 21//8 29//8
f 6//9 22//9 31//9
f 2//10 23//10 26//10
f 3//11 25//11 28//11
f 4//12 27//12 30//12
f 5//13 29//13 32//13
f 6//14 31//14 24//14
f 7//15 33//15 38//15
f 8//16 34//16 40//16
f 9//17 35//17 41//17
f 10//18 36//18 42//18
f 11//19 37//19 39//19
f 39//20 42//20 12//20
f 39//21 37//21 42//21
f 37//22 10//22 42//22
f 42//23 41//23 12//23
f 42//24 36//24 41//24
f 36//25 9//25 41//25
f 41//26 40//26 12//26
f 41//27 35//27 40//27
f 35//28 8//28 40//28
f 40//29 38//29 12//29
f 40//30 34//30 38//30
f 34//31 7//31 38//31
f 38//32 39//32 12//32
f 38//33 33//33 39//33
f 33//34 11//34 39//34
f 24//35 37//35 11//35
f 24//36 31//36 37//36
f 31//37 10//37 37//37
f 32//38 36//38 10//38
f 32//39 29//39 36//39
f 29//40 9//40 36//40
f 30//41 35//41 9//41
f 30//42 27//42 35//42
f 27//43 8//43 35//43
f 28//44 34//44 8//44
f 28//45 25//45 34//45
f 25//46 7//46 34//46
f 26//47 33//47 7//47
f 26//48 23//48 33//48
f 23//49 11//49 33//49
f 31//50 32//50 10//50
f 31//51 22//51 32//51
f 22//52 5//52 32//52
f 29//53 30//53 9//53
f 29//54 21//54 30//54
f 21//55 4//55 30//55
f 27//56 28//56 8//56
f 27//57 19//57 28//57
f 19//58 3//58 28//58
f 25//59 26//59 7//59
f 25//60 15//60 26//60
f 15//61 2//61 26//61
f 23//62 24//62 11//62
f 23//63 16//63 24//63
f 16//64 6//64 24//64
f 17//1 22//1 6//1
f 17//65 20//65 22//65
f 20//66 5//66 22//66
f 20//67 21//67 5//67
f 20//68 18//68 21//68
f 18//69 4//69 21//69
f 18//70 19//70 4//70
f 18//71 13//71 19//71
f 13//72 3//72 19//72
f 16//1 17//1 6//1
f 16//1 14//1 17//1
f 14//1 1//1 17//1
f 13//73 15//73 3//73
f 13//1 14//1 15//1
f 14//1 2//1 15//1
o Icosphere
v 0.075518 -0.544015 -0.084800
v 1.102212 -0.544015 0.409311
v -0.316637 -0.562219 0.714695
v -1.193544 -0.562214 -0.084800
v -0.316637 -0.562219 -0.884295
v 1.102212 -0.544015 -0.578910
v 0.487423 0.196561 0.608239
v -0.800530 0.383938 0.409311
v -0.951176 0.210868 -0.424183
v 0.467672 0.295924 -0.853104
v 1.110453 0.196557 -0.020320
v 0.075518 0.970370 -0.084800
v -0.154983 -0.544015 0.385128
v 0.678989 -0.544015 0.205629
v 0.448490 -0.544015 0.675562
v 1.282464 -0.544015 -0.084800
v 0.678989 -0.544015 -0.375229
v -0.670417 -0.496307 -0.084800
v -0.900923 -0.573674 0.385130
v -0.154983 -0.496310 -0.554728
v -0.900923 -0.561793 -0.554729
v 0.448490 -0.544015 -0.845161
v 1.424931 -0.037220 0.205630
v 1.378702 0.006772 -0.394420
v 0.075518 -0.088618 0.855065
v 0.909500 -0.088618 0.675566
v -1.273896 -0.088618 0.205630
v -0.758465 -0.088618 0.675566
v -0.758465 -0.088618 -0.812633
v -1.211448 -0.088618 -0.375230
v 0.912210 -0.049424 -0.807766
v 0.075518 -0.088618 -0.987312
v 0.909423 0.216045 0.384368
v -0.297455 0.398451 0.675562
v -1.030875 0.444205 -0.084800
v -0.297455 0.222216 -0.845161
v 0.909423 0.226128 -0.254071
v 0.306019 0.550504 0.242591
v 0.743696 0.623791 -0.020320
v -0.527954 0.812214 0.205629
v -0.527954 0.812214 -0.375229
v 0.306019 0.812214 -0.554728
vn 0.0000 -1.0000 0.0000
vn -0.0638 -0.9975 -0.0313
vn -0.0637 -0.9955 -0.0698
vn -0.0394 -0.9959 -0.0818
vn 0.8533 -0.4183 0.3113
vn 0.0560 -0.3261 0.9437
vn -0.7746 -0.4209 0.4721
vn -0.4672 -0.3106 -0.8278
vn 0.3629 -0.2729 -0.8910
vn 0.6748 -0.1383 0.7250
vn -0.2090 -0.1148 0.9712
vn -0.9890 -0.1026 -0.1063
vn -0.2048 -0.0431 -0.9779
vn 0.6665 -0.0866 -0.7404
vn 0.2795 0.7554 0.5926
vn -0.3920 0.5866 0.7087
vn -0.6795 0.5203 -0.5173
vn -0.0559 0.4864 -0.8719
vn 0.6592 0.5659 -0.4953
vn 0.4646 0.8828 -0.0692
vn 0.7326 0.5450 -0.4078
vn 0.7234 0.5010 -0.4751
vn -0.0756 0.9333 -0.3512
vn -0.1727 0.5715 -0.8022
vn -0.4982 0.4127 -0.7625
vn -0.2535 0.9673 0.0000
vn -0.5905 0.8070 0.0000
vn -0.6799 0.6194 0.3925
vn 0.1760 0.6636 0.7271
vn 0.2200 0.7831 0.5816
vn 0.2463 0.7546 0.6082
vn 0.2891 0.6823 0.6715
vn 0.2570 0.7314 0.6317
vn 0.7172 0.6156 0.3266
vn 0.3654 0.9093 -0.1992
vn 0.2748 0.8613 -0.4273
vn 0.5958 0.7202 -0.3554
vn -0.0453 0.3700 -0.9279
vn -0.2010 0.1976 -0.9595
vn -0.4447 0.5890 -0.6747
vn -0.6872 0.5132 -0.5142
vn -0.9247 0.3676 -0.0994
vn -0.7272 0.5532 0.4065
vn -0.4355 0.4122 0.8003
vn -0.2064 0.1953 0.9588
vn 0.1940 0.4666 0.8629
vn 0.3317 0.6519 0.6819
vn 0.5082 0.5951 0.6225
vn 0.4872 0.8498 0.2011
vn 0.2020 0.1326 -0.9704
vn 0.2138 -0.1272 -0.9686
vn 0.0554 -0.2558 -0.9651
vn -0.6247 0.4372 -0.6470
vn -0.6833 -0.1800 -0.7076
vn -0.7995 -0.3357 -0.4981
vn -0.6346 0.3357 0.6961
vn -0.6544 -0.2376 0.7178
vn -0.4538 -0.3559 0.8169
vn 0.1850 0.4767 0.8594
vn 0.2058 -0.2083 0.9562
vn 0.3524 -0.3567 0.8652
vn 0.5902 0.8072 0.0137
vn 0.9711 -0.2208 -0.0910
vn 0.8848 -0.3360 -0.3228
vn -0.0638 -0.9975 0.0313
vn 0.0137 -0.9818 0.1896
vn 0.0864 -0.9842 0.1544
vn 0.0870 -0.9916 0.0955
vn 0.1246 -0.9892 0.0767
vn 0.1244 -0.9870 -0.1015
vn 0.0393 -0.9889 -0.1435
vn 0.0397 -0.9986 -0.0357
vn 0.0215 -0.9988 -0.0446
usemtl Material.001
s off
f 43//74 56//74 55//74
f 44//74 56//74 58//74
f 43//75 55//75 60//75
f 43//76 60//76 62//76
f 43//77 62//77 59//77
f 44//78 58//78 65//78
f 45//79 57//79 67//79
f 46//80 61//80 69//80
f 47//81 63//81 71//81
f 48//82 64//82 73//82
f 44//83 65//83 68//83
f 45//84 67//84 70//84
f 46//85 69//85 72//85
f 47//86 71//86 74//86
f 48//87 73//87 66//87
f 49//88 75//88 80//88
f 50//89 76//89 82//89
f 51//90 77//90 83//90
f 52//91 78//91 84//91
f 53//92 79//92 81//92
f 81//93 84//93 54//93
f 81//94 79//94 84//94
f 79//95 52//95 84//95
f 84//96 83//96 54//96
f 84//97 78//97 83//97
f 78//98 51//98 83//98
f 83//99 82//99 54//99
f 83//100 77//100 82//100
f 77//101 50//101 82//101
f 82//102 80//102 54//102
f 82//103 76//103 80//103
f 76//104 49//104 80//104
f 80//105 81//105 54//105
f 80//106 75//106 81//106
f 75//107 53//107 81//107
f 66//108 79//108 53//108
f 66//109 73//109 79//109
f 73//110 52//110 79//110
f 74//111 78//111 52//111
f 74//112 71//112 78//112
f 71//113 51//113 78//113
f 72//114 77//114 51//114
f 72//115 69//115 77//115
f 69//116 50//116 77//116
f 70//117 76//117 50//117
f 70//118 67//118 76//118
f 67//119 49//119 76//119
f 68//120 75//120 49//120
f 68//121 65//121 75//121
f 65//122 53//122 75//122
f 73//123 74//123 52//123
f 73//124 64//124 74//124
f 64//125 47//125 74//125
f 71//126 72//126 51//126
f 71//127 63//127 72//127
f 63//128 46//128 72//128
f 69//129 70//129 50//129
f 69//130 61//130 70//130
f 61//131 45//131 70//131
f 67//132 68//132 49//132
f 67//133 57//133 68//133
f 57//134 44//134 68//134
f 65//135 66//135 53//135
f 65//136 58//136 66//136
f 58//137 48//137 66//137
f 59//74 64//74 48//74
f 59//138 62//138 64//138
f 62//139 47//139 64//139
f 62//140 63//140 47//140
f 62//141 60//141 63//141
f 60//142 46//142 63//142
f 60//143 61//143 46//143
f 60//144 55//144 61//144
f 55//145 45//145 61//145
f 58//74 59//74 48//74
f 58//74 56//74 59//74
f 56//74 43//74 59//74
f 55//146 57//146 45//146
f 55//74 56//74 57//74
f 56//74 44//74 57//74
