# Blender v2.79 (sub 0) OBJ File: 'Wood.blend'
# www.blender.org
mtllib Wood.mtl
o Cylinder
v 0.000000 -0.078728 1.960788
v 0.000000 -0.089540 -2.023768
v 0.189106 -0.041112 1.960863
v 0.195733 -0.050605 -2.023690
v 0.349423 0.066010 1.961076
v 0.361668 0.060270 -2.023470
v 0.456543 0.226329 1.961394
v 0.472542 0.226208 -2.023140
v 0.494159 0.415438 1.961770
v 0.511476 0.421944 -2.022751
v 0.456543 0.604548 1.962146
v 0.460713 0.666490 -2.110731
v 0.349423 0.764867 1.962465
v 0.291105 0.783618 -2.097134
v 0.189106 0.871989 1.962678
v 0.127655 0.894494 -2.068527
v 0.000000 0.909605 1.962752
v -0.065179 0.933429 -2.034963
v -0.189106 0.871989 1.962678
v -0.258040 0.894494 -2.001551
v -0.349423 0.764867 1.962465
v -0.421566 0.783618 -1.973378
v -0.456543 0.604548 1.962146
v -0.530861 0.617681 -1.954733
v -0.494159 0.415438 1.961770
v -0.569288 0.421944 -1.948455
v -0.456543 0.226329 1.961394
v -0.530994 0.226208 -1.955500
v -0.349423 0.066010 1.961076
v -0.361668 0.060270 -2.023470
v -0.189106 -0.041112 1.960863
v -0.195733 -0.050606 -2.023690
v 0.000000 -0.094745 1.306067
v 0.000000 -0.093443 0.651380
v -0.049871 -0.092142 -0.007140
v 0.050182 -0.090841 -0.654136
v 0.243604 -0.051907 -0.624146
v 0.143551 -0.053208 0.022850
v 0.195733 -0.054509 0.651458
v 0.195733 -0.055810 1.306144
v 0.407556 0.058969 -0.598569
v 0.307503 0.057668 0.048427
v 0.361668 0.056367 0.651678
v 0.361668 0.055066 1.306365
v 0.517077 0.224907 -0.581299
v 0.417024 0.223605 0.065697
v 0.472542 0.222304 0.652008
v 0.472542 0.221003 1.306695
v 0.555494 0.420643 -0.574965
v 0.455441 0.419342 0.072032
v 0.511476 0.418041 0.652397
v 0.511476 0.416740 1.307084
v 0.516958 0.616380 -0.580530
v 0.416905 0.615079 0.066466
v 0.472542 0.613777 0.652786
v 0.472542 0.612476 1.307473
v 0.407336 0.782317 -0.597149
v 0.307283 0.781016 0.049848
v 0.361668 0.779715 0.653116
v 0.361668 0.778413 1.307802
v 0.243317 0.893193 -0.622290
v 0.143264 0.891892 0.024706
v 0.195733 0.890590 0.653336
v 0.195733 0.889289 1.308023
v 0.049871 0.932127 -0.652127
v -0.050182 0.930826 -0.005130
v 0.000000 0.929525 0.653414
v 0.000000 0.928224 1.308100
v -0.143551 0.893193 -0.682116
v -0.243604 0.891892 -0.035120
v -0.195733 0.890591 0.653336
v -0.195733 0.889289 1.308023
v -0.307503 0.782317 -0.707693
v -0.407556 0.781016 -0.060697
v -0.361668 0.779715 0.653116
v -0.361668 0.778414 1.307802
v -0.417024 0.616380 -0.724964
v -0.517077 0.615079 -0.077967
v -0.472542 0.613777 0.652786
v -0.472542 0.612476 1.307473
v -0.455441 0.420643 -0.731298
v -0.555494 0.419342 -0.084302
v -0.511476 0.418041 0.652397
v -0.511476 0.416740 1.307084
v -0.416905 0.224907 -0.725732
v -0.516958 0.223605 -0.078736
v -0.472542 0.222304 0.652008
v -0.472542 0.221003 1.306695
v -0.307283 0.058969 -0.709114
v -0.407336 0.057668 -0.062118
v -0.361668 0.056367 0.651678
v -0.361668 0.055065 1.306365
v -0.143264 -0.051907 -0.683973
v -0.243317 -0.053208 -0.036976
v -0.195733 -0.054509 0.651458
v -0.195733 -0.055810 1.306144
v 0.244452 -0.174730 1.960597
v 0.451687 -0.036257 1.960873
v 0.590158 0.170983 1.961284
v 0.638783 0.415438 1.961770
v 0.590158 0.659894 1.962256
v 0.451687 0.867133 1.962668
v 0.244452 1.005606 1.962943
v 0.000000 1.054231 1.963040
v -0.244451 1.005606 1.962943
v -0.451687 0.867133 1.962668
v -0.590158 0.659894 1.962256
v -0.638783 0.415438 1.961770
v -0.590158 0.170983 1.961284
v -0.451687 -0.036257 1.960873
v -0.244451 -0.174730 1.960597
v -0.000000 -0.223355 1.960501
v 0.000000 0.112533 0.550917
v 0.115915 0.135591 0.550962
v 0.214183 0.201252 0.551093
v 0.279843 0.299522 0.551288
v 0.302900 0.415438 0.551519
v 0.279843 0.531355 0.551749
v 0.214183 0.629624 0.551944
v 0.115915 0.695286 0.552075
v 0.000000 0.718343 0.552121
v -0.115915 0.695286 0.552075
v -0.214183 0.629624 0.551944
v -0.279843 0.531355 0.551749
v -0.302900 0.415438 0.551519
v -0.279843 0.299522 0.551288
v -0.214183 0.201252 0.551093
v -0.115915 0.135591 0.550962
v 0.412766 0.783618 -1.396531
v 0.582374 0.666490 -1.410128
v 0.249315 0.894494 -1.367924
v 0.056481 0.933429 -1.334359
v -0.110990 0.894494 -1.154739
v -0.274515 0.783618 -1.126566
v -0.572932 0.617681 -1.254130
v -0.611358 0.421944 -1.247852
v -0.409334 0.226208 -1.254897
v 0.472542 0.616380 -0.656587
v 0.361668 0.782317 -0.656258
v 0.195733 0.893193 -0.656037
v 0.000000 0.932127 -0.655960
v -0.195733 0.893193 -0.656037
v -0.361668 0.782317 -0.656258
v -0.472542 0.616380 -0.656587
v -0.511476 0.420643 -0.656977
v -0.472542 0.224907 -0.657366
v 0.000000 0.112533 0.550917
v 0.115915 0.135591 0.550962
v 0.214183 0.201252 0.551093
v 0.279843 0.299522 0.551288
v 0.302900 0.415438 0.551519
v 0.279843 0.531355 0.551749
v 0.214183 0.629624 0.551944
v 0.115915 0.695286 0.552075
v 0.000000 0.718343 0.552121
v -0.115915 0.695286 0.552075
v -0.214183 0.629624 0.551944
v -0.279843 0.531355 0.551749
v -0.302900 0.415438 0.551519
v -0.279843 0.299522 0.551288
v -0.214183 0.201252 0.551093
v -0.115915 0.135591 0.550962
v 0.174875 0.001069 -2.978076
v -0.000000 -0.033716 -2.978145
v 0.323127 0.100129 -2.977879
v 0.422186 0.248384 -2.977585
v 0.456970 0.423262 -2.977237
v 0.422186 0.598140 -2.976890
v 0.323127 0.746394 -2.976595
v 0.174875 0.845454 -2.976398
v 0.000000 0.880240 -2.976329
v -0.174875 0.845454 -2.976398
v -0.323127 0.746394 -2.976595
v -0.422186 0.598140 -2.976890
v -0.456971 0.423262 -2.977237
v -0.422186 0.248384 -2.977585
v -0.323127 0.100129 -2.977879
v -0.174875 0.001069 -2.978076
v -0.713250 0.985267 -1.252528
v -0.547316 1.096143 -1.213742
v -0.547316 1.094842 -0.871489
v -0.713250 0.983966 -0.866382
v -0.920891 1.120965 -1.391095
v -0.823381 1.175886 -1.326144
v -0.722692 1.174585 -0.983891
v -0.820202 1.119664 -1.004949
v 0.141303 0.082121 -2.977915
v -0.000000 0.054014 -2.977971
v 0.261093 0.162164 -2.977756
v 0.341135 0.281957 -2.977518
v 0.369242 0.423262 -2.977237
v 0.341135 0.564567 -2.976956
v 0.261093 0.684359 -2.976718
v 0.141303 0.764402 -2.976559
v 0.000000 0.792509 -2.976503
v -0.141303 0.764402 -2.976559
v -0.261093 0.684359 -2.976718
v -0.341135 0.564567 -2.976956
v -0.369242 0.423262 -2.977237
v -0.341135 0.281957 -2.977518
v -0.261093 0.162164 -2.977756
v -0.141302 0.082121 -2.977915
v 0.103198 0.174116 -2.019049
v -0.000000 0.153588 -2.019090
v 0.190685 0.232574 -2.018933
v 0.249142 0.320062 -2.018759
v 0.269669 0.423262 -2.018554
v 0.249142 0.526461 -2.018349
v 0.190685 0.613949 -2.018175
v 0.103198 0.672407 -2.018059
v 0.000000 0.692935 -2.018018
v -0.103198 0.672407 -2.018059
v -0.190685 0.613950 -2.018175
v -0.249142 0.526461 -2.018349
v -0.269669 0.423262 -2.018554
v -0.249142 0.320062 -2.018759
v -0.190685 0.232574 -2.018933
v -0.103198 0.174116 -2.019049
v 0.307006 0.949171 -1.367163
v 0.470456 0.836232 -1.386047
v 0.419358 0.899133 -0.902748
v 0.253423 1.009611 -0.912144
v 0.472542 0.612476 1.307473
v 0.361668 0.778413 1.307802
v 0.590158 0.659894 1.962256
v 0.451687 0.867133 1.962668
v 0.603468 0.598122 1.318090
v 0.492594 0.764060 1.318420
v 0.854279 0.836491 2.010957
v 0.715809 1.043730 2.011369
vn 0.1968 -0.9804 -0.0079
vn 0.5588 -0.8291 -0.0193
vn 0.8334 -0.5520 -0.0268
vn 0.9807 -0.1933 -0.0302
vn 0.9808 0.1926 -0.0297
vn 0.7771 0.1618 0.6082
vn -0.0245 0.9997 0.0021
vn 0.0000 0.0000 1.0000
vn -0.6376 0.7691 0.0433
vn 0.4227 -0.6964 0.5800
vn 0.5603 0.8226 -0.0973
vn 0.5064 0.6964 -0.5086
vn -0.7608 -0.6471 0.0497
vn 0.7008 0.7119 -0.0457
vn -0.5588 -0.8290 0.0217
vn -0.1967 -0.9804 0.0065
vn -0.9723 0.1931 0.1319
vn -0.1916 -0.9630 -0.1893
vn -0.1951 -0.9808 -0.0019
vn -0.1971 -0.9803 0.0124
vn -0.1925 -0.9808 -0.0317
vn -0.5457 -0.8164 -0.1890
vn -0.5556 -0.8315 -0.0017
vn -0.5593 -0.8282 0.0357
vn -0.5488 -0.8315 -0.0865
vn -0.8168 -0.5454 -0.1884
vn -0.8315 -0.5556 -0.0011
vn -0.8330 -0.5509 0.0510
vn -0.8215 -0.5556 -0.1282
vn -0.9634 -0.1913 -0.1877
vn -0.9808 -0.1951 -0.0004
vn -0.9794 -0.1930 0.0587
vn -0.9692 -0.1951 -0.1503
vn -0.9634 0.1920 -0.1870
vn -0.9808 0.1951 0.0004
vn -0.9795 0.1925 0.0594
vn -0.9693 0.1951 -0.1495
vn -0.8168 0.5461 -0.1863
vn -0.8315 0.5556 0.0011
vn -0.8332 0.5505 0.0531
vn -0.8219 0.5556 -0.1260
vn -0.5457 0.8171 -0.1857
vn -0.5556 0.8315 0.0017
vn -0.5596 0.8279 0.0389
vn -0.5493 0.8315 -0.0833
vn -0.1916 0.9638 -0.1854
vn -0.1951 0.9808 0.0019
vn -0.1974 0.9802 0.0163
vn -0.1931 0.9808 -0.0279
vn 0.1916 0.9638 -0.1854
vn 0.1951 0.9808 0.0019
vn 0.1972 0.9803 -0.0137
vn 0.1925 0.9808 0.0317
vn 0.5457 0.8171 -0.1857
vn 0.5556 0.8315 0.0017
vn 0.5596 0.8274 -0.0468
vn 0.5488 0.8315 0.0865
vn 0.8315 0.5556 0.0011
vn 0.8322 0.5492 -0.0758
vn 0.8215 0.5556 0.1282
vn 0.9634 0.1920 -0.1870
vn 0.9808 0.1951 0.0004
vn 0.9770 0.1921 -0.0931
vn 0.9692 0.1951 0.1503
vn 0.9634 -0.1913 -0.1877
vn 0.9808 -0.1951 -0.0004
vn 0.9770 -0.1914 -0.0938
vn 0.9693 -0.1951 0.1495
vn 0.8168 -0.5454 -0.1884
vn 0.8315 -0.5556 -0.0011
vn 0.8324 -0.5487 -0.0780
vn 0.8219 -0.5556 0.1260
vn 0.5457 -0.8164 -0.1890
vn 0.5556 -0.8315 -0.0017
vn 0.5599 -0.8271 -0.0501
vn 0.5493 -0.8315 0.0833
vn 0.1916 -0.9630 -0.1893
vn 0.1951 -0.9808 -0.0019
vn 0.1975 -0.9801 -0.0176
vn 0.1931 -0.9808 0.0279
vn 0.0000 -0.0020 1.0000
vn 0.1933 -0.9722 0.1318
vn 0.8243 0.5505 0.1319
vn -0.5508 0.8241 0.1319
vn -0.5506 -0.8243 0.1318
vn 0.9722 -0.1936 0.1318
vn -0.9722 -0.1936 0.1318
vn 0.5506 -0.8243 0.1318
vn 0.5508 0.8241 0.1319
vn -0.8243 0.5505 0.1319
vn -0.1933 -0.9722 0.1318
vn -0.1934 0.9722 0.1319
vn 0.9723 0.1931 0.1319
vn -0.8241 -0.5509 0.1318
vn 0.8241 -0.5509 0.1318
vn 0.1934 0.9722 0.1319
vn 0.7092 0.6978 0.1004
vn 0.8803 -0.4645 0.0969
vn 0.1979 0.9801 0.0175
vn -0.2211 0.9750 -0.0244
vn -0.2744 0.4295 0.8604
vn -0.6316 0.7752 0.0097
vn -0.9674 0.1936 0.1634
vn -0.8511 -0.5244 0.0251
vn 0.5474 0.8315 -0.0951
vn 0.7366 0.4653 -0.4909
vn -0.9799 0.1905 -0.0588
vn 0.1214 -0.8217 0.5569
vn 0.1922 0.9808 -0.0334
vn 0.7772 -0.1640 0.6075
vn -0.8505 -0.5238 0.0483
vn -0.1922 0.9808 0.0334
vn 0.2051 0.8217 -0.5318
vn 0.2856 -0.9577 -0.0353
vn 0.6529 -0.4653 0.5977
vn -0.5474 0.8315 0.0951
vn 0.0000 0.0020 -1.0000
vn -0.8319 0.5458 -0.1004
vn -0.1948 -0.9792 -0.0573
vn 0.9793 -0.1947 -0.0562
vn -0.2020 0.9770 -0.0678
vn -0.7663 -0.6378 -0.0771
vn 0.5547 -0.8301 -0.0571
vn 0.5576 0.8300 -0.0153
vn -0.9758 0.1910 -0.1068
vn 0.9805 0.1881 -0.0570
vn -0.5618 0.8227 -0.0875
vn -0.5547 -0.8301 -0.0571
vn 0.8302 -0.5546 -0.0567
vn 0.1927 0.9803 -0.0425
vn 0.1948 -0.9792 -0.0573
vn -0.9758 -0.1903 -0.1074
vn -0.6940 -0.7145 0.0881
vn 0.4420 0.8958 0.0473
vn 0.1356 -0.1546 -0.9786
vn -0.4380 -0.8977 -0.0473
vn -0.5348 0.8314 0.1508
vn 0.4208 -0.1049 -0.9011
vn -0.3501 0.4789 0.8050
vn 0.3541 0.9339 -0.0485
vn -0.5526 0.8272 -0.1013
vn 0.5528 -0.8271 -0.1014
vn -0.8271 0.5528 -0.1013
vn 0.8273 -0.5526 -0.1014
vn -0.9757 0.1943 -0.1013
vn 0.9758 -0.1939 -0.1013
vn -0.9758 -0.1939 -0.1013
vn 0.9757 0.1943 -0.1013
vn -0.8273 -0.5526 -0.1014
vn 0.8271 0.5528 -0.1013
vn -0.5528 -0.8271 -0.1014
vn 0.5526 0.8272 -0.1013
vn -0.1941 -0.9757 -0.1014
vn -0.1941 0.9757 -0.1013
vn 0.1940 0.9757 -0.1013
vn 0.1941 -0.9757 -0.1014
vn 0.5598 0.8273 -0.0463
vn -0.0418 0.1485 -0.9880
vn 0.4847 0.7456 0.4573
vn -0.8897 0.4444 -0.1042
vn -0.3525 0.9203 -0.1696
vn 0.7456 0.4991 -0.4416
vn 0.0872 0.0603 -0.9944
vn -0.1251 -0.0855 0.9885
vn 0.3657 -0.9257 0.0963
usemtl Material.001
s off
f 36//1 2//1 4//1 37//1
f 37//2 4//2 6//2 41//2
f 41//3 6//3 8//3 45//3
f 45//4 8//4 10//4 49//4
f 49//5 10//5 12//5 53//5
f 85//6 81//6 145//6 146//6
f 28//7 85//7 146//7 137//7
f 125//8 126//8 160//8 159//8
f 22//9 24//9 135//9 134//9
f 73//10 69//10 142//10 143//10
f 124//8 125//8 159//8 158//8
f 12//11 14//11 129//11 130//11
f 61//12 57//12 139//12 140//12
f 85//13 28//13 30//13 89//13
f 14//14 12//14 168//14 169//14
f 89//15 30//15 32//15 93//15
f 93//16 32//16 2//16 36//16
f 7//17 9//17 117//17 116//17
f 111//18 96//18 33//18 112//18
f 96//19 95//19 34//19 33//19
f 95//20 94//20 35//20 34//20
f 94//21 93//21 36//21 35//21
f 110//22 92//22 96//22 111//22
f 92//23 91//23 95//23 96//23
f 91//24 90//24 94//24 95//24
f 90//25 89//25 93//25 94//25
f 109//26 88//26 92//26 110//26
f 88//27 87//27 91//27 92//27
f 87//28 86//28 90//28 91//28
f 86//29 85//29 89//29 90//29
f 108//30 84//30 88//30 109//30
f 84//31 83//31 87//31 88//31
f 83//32 82//32 86//32 87//32
f 82//33 81//33 85//33 86//33
f 107//34 80//34 84//34 108//34
f 80//35 79//35 83//35 84//35
f 79//36 78//36 82//36 83//36
f 78//37 77//37 81//37 82//37
f 106//38 76//38 80//38 107//38
f 76//39 75//39 79//39 80//39
f 75//40 74//40 78//40 79//40
f 74//41 73//41 77//41 78//41
f 105//42 72//42 76//42 106//42
f 72//43 71//43 75//43 76//43
f 71//44 70//44 74//44 75//44
f 70//45 69//45 73//45 74//45
f 104//46 68//46 72//46 105//46
f 68//47 67//47 71//47 72//47
f 67//48 66//48 70//48 71//48
f 66//49 65//49 69//49 70//49
f 103//50 64//50 68//50 104//50
f 64//51 63//51 67//51 68//51
f 63//52 62//52 66//52 67//52
f 62//53 61//53 65//53 66//53
f 102//54 60//54 64//54 103//54
f 60//55 59//55 63//55 64//55
f 59//56 58//56 62//56 63//56
f 58//57 57//57 61//57 62//57
f 60//8 102//8 226//8 224//8
f 56//58 55//58 59//58 60//58
f 55//59 54//59 58//59 59//59
f 54//60 53//60 57//60 58//60
f 100//61 52//61 56//61 101//61
f 52//62 51//62 55//62 56//62
f 51//63 50//63 54//63 55//63
f 50//64 49//64 53//64 54//64
f 99//65 48//65 52//65 100//65
f 48//66 47//66 51//66 52//66
f 47//67 46//67 50//67 51//67
f 46//68 45//68 49//68 50//68
f 98//69 44//69 48//69 99//69
f 44//70 43//70 47//70 48//70
f 43//71 42//71 46//71 47//71
f 42//72 41//72 45//72 46//72
f 97//73 40//73 44//73 98//73
f 40//74 39//74 43//74 44//74
f 39//75 38//75 42//75 43//75
f 38//76 37//76 41//76 42//76
f 112//77 33//77 40//77 97//77
f 33//78 34//78 39//78 40//78
f 34//79 35//79 38//79 39//79
f 35//80 36//80 37//80 38//80
f 1//81 112//81 97//81 3//81
f 3//81 97//81 98//81 5//81
f 5//81 98//81 99//81 7//81
f 7//81 99//81 100//81 9//81
f 9//81 100//81 101//81 11//81
f 11//81 101//81 102//81 13//81
f 13//81 102//81 103//81 15//81
f 15//81 103//81 104//81 17//81
f 17//81 104//81 105//81 19//81
f 19//81 105//81 106//81 21//81
f 21//81 106//81 107//81 23//81
f 23//81 107//81 108//81 25//81
f 25//81 108//81 109//81 27//81
f 27//81 109//81 110//81 29//81
f 29//81 110//81 111//81 31//81
f 31//81 111//81 112//81 1//81
f 123//8 124//8 158//8 157//8
f 17//82 19//82 122//82 121//82
f 27//83 29//83 127//83 126//83
f 3//84 5//84 115//84 114//84
f 13//85 15//85 120//85 119//85
f 23//86 25//86 125//86 124//86
f 9//87 11//87 118//87 117//87
f 19//88 21//88 123//88 122//88
f 29//89 31//89 128//89 127//89
f 5//90 7//90 116//90 115//90
f 15//91 17//91 121//91 120//91
f 1//92 3//92 114//92 113//92
f 25//93 27//93 126//93 125//93
f 11//94 13//94 119//94 118//94
f 21//95 23//95 124//95 123//95
f 31//96 1//96 113//96 128//96
f 138//97 130//97 129//97 139//97
f 139//98 129//98 220//98 221//98
f 140//99 131//99 132//99 141//99
f 141//100 132//100 133//100 142//100
f 143//101 142//101 181//101 182//101
f 143//102 134//102 135//102 144//102
f 144//103 135//103 136//103 145//103
f 145//104 136//104 137//104 146//104
f 147//81 148//81 149//81 150//81 151//81 152//81 153//81 154//81 155//81 156//81 157//81 158//81 159//81 160//81 161//81 162//81
f 126//8 127//8 161//8 160//8
f 14//105 16//105 131//105 129//105
f 113//8 114//8 148//8 147//8
f 127//8 128//8 162//8 161//8
f 57//106 53//106 138//106 139//106
f 114//8 115//8 149//8 148//8
f 24//107 26//107 136//107 135//107
f 128//8 113//8 147//8 162//8
f 115//8 116//8 150//8 149//8
f 69//108 65//108 141//108 142//108
f 16//109 18//109 132//109 131//109
f 116//8 117//8 151//8 150//8
f 81//110 77//110 144//110 145//110
f 117//8 118//8 152//8 151//8
f 26//111 28//111 137//111 136//111
f 118//8 119//8 153//8 152//8
f 18//112 20//112 133//112 132//112
f 119//8 120//8 154//8 153//8
f 65//113 61//113 140//113 141//113
f 120//8 121//8 155//8 154//8
f 53//114 12//114 130//114 138//114
f 77//115 73//115 143//115 144//115
f 121//8 122//8 156//8 155//8
f 20//116 22//116 134//116 133//116
f 122//8 123//8 157//8 156//8
f 176//117 175//117 199//117 200//117
f 24//118 22//118 173//118 174//118
f 2//119 32//119 178//119 164//119
f 10//120 8//120 166//120 167//120
f 20//121 18//121 171//121 172//121
f 30//122 28//122 176//122 177//122
f 6//123 4//123 163//123 165//123
f 16//124 14//124 169//124 170//124
f 26//125 24//125 174//125 175//125
f 12//126 10//126 167//126 168//126
f 22//127 20//127 172//127 173//127
f 32//128 30//128 177//128 178//128
f 8//129 6//129 165//129 166//129
f 18//130 16//130 170//130 171//130
f 4//131 2//131 164//131 163//131
f 28//132 26//132 175//132 176//132
f 179//133 182//133 186//133 183//133
f 142//134 133//134 180//134 181//134
f 133//135 134//135 179//135 180//135
f 134//136 143//136 182//136 179//136
f 185//137 184//137 183//137 186//137
f 180//138 179//138 183//138 184//138
f 182//139 181//139 185//139 186//139
f 181//140 180//140 184//140 185//140
f 189//141 187//141 203//141 205//141
f 169//117 168//117 192//117 193//117
f 177//117 176//117 200//117 201//117
f 170//117 169//117 193//117 194//117
f 178//117 177//117 201//117 202//117
f 171//117 170//117 194//117 195//117
f 163//117 164//117 188//117 187//117
f 164//117 178//117 202//117 188//117
f 172//117 171//117 195//117 196//117
f 165//117 163//117 187//117 189//117
f 173//117 172//117 196//117 197//117
f 166//117 165//117 189//117 190//117
f 174//117 173//117 197//117 198//117
f 167//117 166//117 190//117 191//117
f 175//117 174//117 198//117 199//117
f 168//117 167//117 191//117 192//117
f 203//117 204//117 218//117 217//117 216//117 215//117 214//117 213//117 212//117 211//117 210//117 209//117 208//117 207//117 206//117 205//117
f 197//142 196//142 212//142 213//142
f 190//143 189//143 205//143 206//143
f 198//144 197//144 213//144 214//144
f 191//145 190//145 206//145 207//145
f 199//146 198//146 214//146 215//146
f 192//147 191//147 207//147 208//147
f 200//148 199//148 215//148 216//148
f 193//149 192//149 208//149 209//149
f 201//150 200//150 216//150 217//150
f 194//151 193//151 209//151 210//151
f 202//152 201//152 217//152 218//152
f 195//153 194//153 210//153 211//153
f 187//154 188//154 204//154 203//154
f 188//155 202//155 218//155 204//155
f 196//156 195//156 211//156 212//156
f 221//157 220//157 219//157 222//157
f 129//158 131//158 219//158 220//158
f 140//159 139//159 221//159 222//159
f 131//160 140//160 222//160 219//160
f 224//161 226//161 230//161 228//161
f 102//8 101//8 225//8 226//8
f 101//8 56//8 223//8 225//8
f 56//8 60//8 224//8 223//8
f 229//162 227//162 228//162 230//162
f 223//163 224//163 228//163 227//163
f 226//164 225//164 229//164 230//164
f 225//165 223//165 227//165 229//165
